# xmcd
#
# Track frame offsets:
# 150
# 15645
# 33362
# 53305
# 68323
# 79938
# 100153
# 117505
# 130666
# 145304
# 163801
# 181661
# 197936
# 213605
# 228069
# 247287
#
# Disc length: 3455 seconds
#
#
# Revision: 1
# Processed by: cddbd v1.5.2PL0 Copyright (c) Steve Scherf et al.
# Submitted via: FreeRIP 2.944 
#
DISCID=d50d7d10
DTITLE=Boss Hoss - Internashville Urban Hymne
DYEAR=1900
DGENRE=New Country
TTITLE0=Yee Haw
TTITLE1=Hey ya !
TTITLE2=Toxic
TTITLE3=Loser
TTITLE4=Sabotage
TTITLE5=Hot in there
TTITLE6=Seven Nation army
TTITLE7=Drowned in lake Daniels
TTITLE8=A little less conversation
TTITLE9=Hey Joe
TTITLE10=Eyes without a face
TTITLE11=Unbelievable
TTITLE12=All the things she said
TTITLE13=Remedy
TTITLE14=Word up
TTITLE15=Like ice in the sunshine
EXTD=
EXTT0=
EXTT1=
EXTT2=
EXTT3=
EXTT4=
EXTT5=
EXTT6=
EXTT7=
EXTT8=
EXTT9=
EXTT10=
EXTT11=
EXTT12=
EXTT13=
EXTT14=
EXTT15=
PLAYORDER=
